<svg preserveAspectRatio="none" width="100%" height="100%" overflow="visible" style="display: block;" viewBox="0 0 24 24" fill="none" xmlns="http://www.w3.org/2000/svg">
<g id="SVG">
<path id="Background Pattern Stripe" d="M13 8C13 5.24 10.54 3 7.5 3C4.46 3 2 5.24 2 8H4L5 7L6 8H10" stroke="var(--stroke-0, #155DFC)" stroke-width="2" stroke-linecap="round" stroke-linejoin="round"/>
<path id="Background Pattern Dot" d="M13 7.14C14.0126 6.39135 15.2407 5.99134 16.5 6C19.54 6 22 8.24 22 11H19L18 10L17 11H14" stroke="var(--stroke-0, #155DFC)" stroke-width="2" stroke-linecap="round" stroke-linejoin="round"/>
<path id="Background Pattern Circle" d="M5.89 9.71C3.74 11.86 3.59 15.18 5.54 17.14L9.78 12.89L10.48 12.19L11.19 11.48L13.31 9.36C11.36 7.4 8.04 7.56 5.89 9.71Z" stroke="var(--stroke-0, #155DFC)" stroke-width="2" stroke-linecap="round" stroke-linejoin="round"/>
<path id="Background Pattern Line" d="M11 15.5C11.5 18 10.83 20 10 22H14C16 16.5 13.5 10 13 8" stroke="var(--stroke-0, #155DFC)" stroke-width="2" stroke-linecap="round" stroke-linejoin="round"/>
</g>
</svg>
